<mxfile host="app.diagrams.net" modified="2024-02-01T01:27:46.610Z" agent="Mozilla/5.0 (X11; CrOS x86_64 14541.0.0) AppleWebKit/537.36 (KHTML, like Gecko) Chrome/120.0.0.0 Safari/537.36" version="23.1.0" etag="CHfwXcpsNt-jE5cWnG_c" type="github">
  <diagram name="Page-1" id="Xj1e2iPUPEoOIB0iGPU2">
    <mxGraphModel>
      <root>
        <mxCell id="0" />
        <mxCell id="1" parent="0" />
      </root>
    </mxGraphModel>
  </diagram>
</mxfile>
